# WaveFront *.obj file (generated by Autodesk ATF)

mtllib d3c150be-1c37-413a-9176-81f32b6e7651.mtl

g Body1

v 50.000000 15.000000 0.000000
v 50.000000 0.000000 0.000000
v 0.000000 0.000000 0.000000
v 0.000000 15.000000 0.000000
v 50.000000 15.000000 14.000000
v 50.000000 0.000000 14.000000
v 0.000000 0.000000 14.000000
v 0.000000 15.000000 14.000000
vt -2.500000 -0.750000 0.000000
vt 2.500000 -0.750000 0.000000
vt -2.500000 0.750000 0.000000
vt 2.500000 0.750000 0.000000
vt 0.000000 0.000000 0.000000
vt 1.500000 0.000000 0.000000
vt 0.000000 1.400000 0.000000
vt 1.500000 1.400000 0.000000
vt 0.000000 0.000000 0.000000
vt 1.500000 0.000000 0.000000
vt 0.000000 1.400000 0.000000
vt 1.500000 1.400000 0.000000
vt 5.000000 1.400000 0.000000
vt 0.000000 1.400000 0.000000
vt 5.000000 0.000000 0.000000
vt 0.000000 0.000000 0.000000
vt -2.500000 -0.750000 0.000000
vt 2.500000 -0.750000 0.000000
vt -2.500000 0.750000 0.000000
vt 2.500000 0.750000 0.000000
vt 5.000000 1.400000 0.000000
vt 0.000000 1.400000 0.000000
vt 5.000000 0.000000 0.000000
vt 0.000000 0.000000 0.000000
vn 0.000000 0.000000 -0.100000
vn 0.000000 0.000000 -0.100000
vn 0.000000 0.000000 -0.100000
vn 0.000000 0.000000 -0.100000
vn 0.100000 0.000000 0.000000
vn 0.100000 0.000000 0.000000
vn 0.100000 0.000000 0.000000
vn 0.100000 0.000000 0.000000
vn -0.100000 0.000000 0.000000
vn -0.100000 0.000000 0.000000
vn -0.100000 0.000000 0.000000
vn -0.100000 0.000000 0.000000
vn 0.000000 -0.100000 0.000000
vn 0.000000 -0.100000 0.000000
vn 0.000000 -0.100000 0.000000
vn 0.000000 -0.100000 0.000000
vn 0.000000 0.000000 0.100000
vn 0.000000 0.000000 0.100000
vn 0.000000 0.000000 0.100000
vn 0.000000 0.000000 0.100000
vn 0.000000 0.100000 0.000000
vn 0.000000 0.100000 0.000000
vn 0.000000 0.100000 0.000000
vn 0.000000 0.100000 0.000000
usemtl Steel_-_Satin
f 2/1/1 3/2/2 1/3/3
f 1/3/3 3/2/2 4/4/4
f 2/5/5 1/6/6 6/7/7
f 6/7/7 1/6/6 5/8/8
f 4/9/9 3/10/10 8/11/11
f 8/11/11 3/10/10 7/12/12
f 6/13/13 7/14/14 2/15/15
f 2/15/15 7/14/14 3/16/16
f 7/17/17 6/18/18 8/19/19
f 8/19/19 6/18/18 5/20/20
f 8/21/21 5/22/22 4/23/23
f 4/23/23 5/22/22 1/24/24
g Body6

v -0.000170 0.000000 27.000000
v 18.999830 0.000000 27.000000
v 18.999830 15.000000 27.000000
v -0.000170 15.000000 27.000000
v -0.000170 15.000000 14.000000
v 18.999830 15.000000 14.000000
v 18.999830 0.000000 14.000000
v -0.000170 0.000000 14.000000
vt -0.950000 -0.750000 0.000000
vt 0.950000 -0.750000 0.000000
vt -0.950000 0.750000 0.000000
vt 0.950000 0.750000 0.000000
vt 0.182664 0.750000 0.000000
vt -1.717336 0.750000 0.000000
vt 0.182664 -0.750000 0.000000
vt -1.717336 -0.750000 0.000000
vt 1.534671 6.400000 0.000000
vt 3.434671 6.400000 0.000000
vt 1.534671 7.700000 0.000000
vt 3.434671 7.700000 0.000000
vt 0.000000 5.400000 0.000000
vt 1.500000 5.400000 0.000000
vt 0.000000 6.700000 0.000000
vt 1.500000 6.700000 0.000000
vt 1.565329 6.400000 0.000000
vt 3.465329 6.400000 0.000000
vt 1.565329 7.700000 0.000000
vt 3.465329 7.700000 0.000000
vt 5.400000 -1.500000 0.000000
vt 6.700000 -1.500000 0.000000
vt 5.400000 0.000000 0.000000
vt 6.700000 0.000000 0.000000
vn 0.000000 0.000000 0.100000
vn 0.000000 0.000000 0.100000
vn 0.000000 0.000000 0.100000
vn 0.000000 0.000000 0.100000
vn 0.000000 0.000000 -0.100000
vn 0.000000 0.000000 -0.100000
vn 0.000000 0.000000 -0.100000
vn 0.000000 0.000000 -0.100000
vn 0.000000 -0.100000 0.000000
vn 0.000000 -0.100000 0.000000
vn 0.000000 -0.100000 0.000000
vn 0.000000 -0.100000 0.000000
vn 0.100000 0.000000 0.000000
vn 0.100000 0.000000 0.000000
vn 0.100000 0.000000 0.000000
vn 0.100000 0.000000 0.000000
vn 0.000000 0.100000 0.000000
vn 0.000000 0.100000 0.000000
vn 0.000000 0.100000 0.000000
vn 0.000000 0.100000 0.000000
vn -0.100000 0.000000 0.000000
vn -0.100000 0.000000 0.000000
vn -0.100000 0.000000 0.000000
vn -0.100000 0.000000 0.000000
f 9/25/25 10/26/26 12/27/27
f 12/27/27 10/26/26 11/28/28
f 13/29/29 14/30/30 16/31/31
f 16/31/31 14/30/30 15/32/32
f 16/33/33 15/34/34 9/35/35
f 9/35/35 15/34/34 10/36/36
f 15/37/37 14/38/38 10/39/39
f 10/39/39 14/38/38 11/40/40
f 14/41/41 13/42/42 11/43/43
f 11/43/43 13/42/42 12/44/44
f 16/45/45 9/46/46 13/47/47
f 13/47/47 9/46/46 12/48/48
g Body7

v 50.000000 15.000000 27.000000
v 50.000000 0.000000 27.000000
v 0.000000 0.000000 27.000000
v 0.000000 15.000000 27.000000
v 50.000000 15.000000 41.000000
v 50.000000 0.000000 41.000000
v 0.000000 0.000000 41.000000
v 0.000000 15.000000 41.000000
vt -2.500000 -0.750000 0.000000
vt 2.500000 -0.750000 0.000000
vt -2.500000 0.750000 0.000000
vt 2.500000 0.750000 0.000000
vt 0.000000 0.000000 0.000000
vt 1.500000 0.000000 0.000000
vt 0.000000 1.400000 0.000000
vt 1.500000 1.400000 0.000000
vt 0.000000 0.000000 0.000000
vt 1.500000 0.000000 0.000000
vt 0.000000 1.400000 0.000000
vt 1.500000 1.400000 0.000000
vt 5.000000 1.400000 0.000000
vt 0.000000 1.400000 0.000000
vt 5.000000 0.000000 0.000000
vt 0.000000 0.000000 0.000000
vt -2.500000 -0.750000 0.000000
vt 2.500000 -0.750000 0.000000
vt -2.500000 0.750000 0.000000
vt 2.500000 0.750000 0.000000
vt 5.000000 1.400000 0.000000
vt 0.000000 1.400000 0.000000
vt 5.000000 0.000000 0.000000
vt 0.000000 0.000000 0.000000
vn 0.000000 0.000000 -0.100000
vn 0.000000 0.000000 -0.100000
vn 0.000000 0.000000 -0.100000
vn 0.000000 0.000000 -0.100000
vn 0.100000 0.000000 0.000000
vn 0.100000 0.000000 0.000000
vn 0.100000 0.000000 0.000000
vn 0.100000 0.000000 0.000000
vn -0.100000 0.000000 0.000000
vn -0.100000 0.000000 0.000000
vn -0.100000 0.000000 0.000000
vn -0.100000 0.000000 0.000000
vn 0.000000 -0.100000 0.000000
vn 0.000000 -0.100000 0.000000
vn 0.000000 -0.100000 0.000000
vn 0.000000 -0.100000 0.000000
vn 0.000000 0.000000 0.100000
vn 0.000000 0.000000 0.100000
vn 0.000000 0.000000 0.100000
vn 0.000000 0.000000 0.100000
vn 0.000000 0.100000 0.000000
vn 0.000000 0.100000 0.000000
vn 0.000000 0.100000 0.000000
vn 0.000000 0.100000 0.000000
f 18/49/49 19/50/50 17/51/51
f 17/51/51 19/50/50 20/52/52
f 18/53/53 17/54/54 22/55/55
f 22/55/55 17/54/54 21/56/56
f 20/57/57 19/58/58 24/59/59
f 24/59/59 19/58/58 23/60/60
f 22/61/61 23/62/62 18/63/63
f 18/63/63 23/62/62 19/64/64
f 23/65/65 22/66/66 24/67/67
f 24/67/67 22/66/66 21/68/68
f 24/69/69 21/70/70 20/71/71
f 20/71/71 21/70/70 17/72/72
g Body8

v 30.999830 0.000000 54.000000
v 49.999830 0.000000 54.000000
v 49.999830 15.000000 54.000000
v 30.999830 15.000000 54.000000
v 30.999830 15.000000 41.000000
v 49.999830 15.000000 41.000000
v 49.999830 0.000000 41.000000
v 30.999830 0.000000 41.000000
vt -0.950000 -0.750000 0.000000
vt 0.950000 -0.750000 0.000000
vt -0.950000 0.750000 0.000000
vt 0.950000 0.750000 0.000000
vt 0.182664 0.750000 0.000000
vt -1.717336 0.750000 0.000000
vt 0.182664 -0.750000 0.000000
vt -1.717336 -0.750000 0.000000
vt 1.534671 6.400000 0.000000
vt 3.434671 6.400000 0.000000
vt 1.534671 7.700000 0.000000
vt 3.434671 7.700000 0.000000
vt 0.000000 5.400000 0.000000
vt 1.500000 5.400000 0.000000
vt 0.000000 6.700000 0.000000
vt 1.500000 6.700000 0.000000
vt 1.565329 6.400000 0.000000
vt 3.465329 6.400000 0.000000
vt 1.565329 7.700000 0.000000
vt 3.465329 7.700000 0.000000
vt 5.400000 -1.500000 0.000000
vt 6.700000 -1.500000 0.000000
vt 5.400000 0.000000 0.000000
vt 6.700000 0.000000 0.000000
vn 0.000000 0.000000 0.100000
vn 0.000000 0.000000 0.100000
vn 0.000000 0.000000 0.100000
vn 0.000000 0.000000 0.100000
vn 0.000000 0.000000 -0.100000
vn 0.000000 0.000000 -0.100000
vn 0.000000 0.000000 -0.100000
vn 0.000000 0.000000 -0.100000
vn 0.000000 -0.100000 0.000000
vn 0.000000 -0.100000 0.000000
vn 0.000000 -0.100000 0.000000
vn 0.000000 -0.100000 0.000000
vn 0.100000 0.000000 0.000000
vn 0.100000 0.000000 0.000000
vn 0.100000 0.000000 0.000000
vn 0.100000 0.000000 0.000000
vn 0.000000 0.100000 0.000000
vn 0.000000 0.100000 0.000000
vn 0.000000 0.100000 0.000000
vn 0.000000 0.100000 0.000000
vn -0.100000 0.000000 0.000000
vn -0.100000 0.000000 0.000000
vn -0.100000 0.000000 0.000000
vn -0.100000 0.000000 0.000000
f 25/73/73 26/74/74 28/75/75
f 28/75/75 26/74/74 27/76/76
f 29/77/77 30/78/78 32/79/79
f 32/79/79 30/78/78 31/80/80
f 32/81/81 31/82/82 25/83/83
f 25/83/83 31/82/82 26/84/84
f 31/85/85 30/86/86 26/87/87
f 26/87/87 30/86/86 27/88/88
f 30/89/89 29/90/90 27/91/91
f 27/91/91 29/90/90 28/92/92
f 32/93/93 25/94/94 29/95/95
f 29/95/95 25/94/94 28/96/96
g Body9

v 50.000000 15.000000 54.000000
v 50.000000 0.000000 54.000000
v 0.000000 0.000000 54.000000
v 0.000000 15.000000 54.000000
v 50.000000 15.000000 68.000000
v 50.000000 0.000000 68.000000
v 0.000000 0.000000 68.000000
v 0.000000 15.000000 68.000000
vt -2.500000 -0.750000 0.000000
vt 2.500000 -0.750000 0.000000
vt -2.500000 0.750000 0.000000
vt 2.500000 0.750000 0.000000
vt 0.000000 0.000000 0.000000
vt 1.500000 0.000000 0.000000
vt 0.000000 1.400000 0.000000
vt 1.500000 1.400000 0.000000
vt 0.000000 0.000000 0.000000
vt 1.500000 0.000000 0.000000
vt 0.000000 1.400000 0.000000
vt 1.500000 1.400000 0.000000
vt 5.000000 1.400000 0.000000
vt 0.000000 1.400000 0.000000
vt 5.000000 0.000000 0.000000
vt 0.000000 0.000000 0.000000
vt -2.500000 -0.750000 0.000000
vt 2.500000 -0.750000 0.000000
vt -2.500000 0.750000 0.000000
vt 2.500000 0.750000 0.000000
vt 5.000000 1.400000 0.000000
vt 0.000000 1.400000 0.000000
vt 5.000000 0.000000 0.000000
vt 0.000000 0.000000 0.000000
vn 0.000000 0.000000 -0.100000
vn 0.000000 0.000000 -0.100000
vn 0.000000 0.000000 -0.100000
vn 0.000000 0.000000 -0.100000
vn 0.100000 0.000000 0.000000
vn 0.100000 0.000000 0.000000
vn 0.100000 0.000000 0.000000
vn 0.100000 0.000000 0.000000
vn -0.100000 0.000000 0.000000
vn -0.100000 0.000000 0.000000
vn -0.100000 0.000000 0.000000
vn -0.100000 0.000000 0.000000
vn 0.000000 -0.100000 0.000000
vn 0.000000 -0.100000 0.000000
vn 0.000000 -0.100000 0.000000
vn 0.000000 -0.100000 0.000000
vn 0.000000 0.000000 0.100000
vn 0.000000 0.000000 0.100000
vn 0.000000 0.000000 0.100000
vn 0.000000 0.000000 0.100000
vn 0.000000 0.100000 0.000000
vn 0.000000 0.100000 0.000000
vn 0.000000 0.100000 0.000000
vn 0.000000 0.100000 0.000000
f 34/97/97 35/98/98 33/99/99
f 33/99/99 35/98/98 36/100/100
f 34/101/101 33/102/102 38/103/103
f 38/103/103 33/102/102 37/104/104
f 36/105/105 35/106/106 40/107/107
f 40/107/107 35/106/106 39/108/108
f 38/109/109 39/110/110 34/111/111
f 34/111/111 39/110/110 35/112/112
f 39/113/113 38/114/114 40/115/115
f 40/115/115 38/114/114 37/116/116
f 40/117/117 37/118/118 36/119/119
f 36/119/119 37/118/118 33/120/120
# 40 vertices
# 120 texture params
# 120 normals
# 60 facets

# 5 groups
